<svg version="1" xmlns="http://www.w3.org/2000/svg" width="888" height="888" viewBox="0 0 666.000000 666.000000"><path d="M483.6 1.8c-2.9 1-5.8 2.8-7 4.5-2 2.7-2 3-.4 5.7 2.1 3.7 1.6 3.9-11.1 4.7-8.4.6-9.4.4-8.8-1 3.3-8.7 3-13.7-.8-13.7-1.9 0-2.7 1-4.4 5.5-1.2 3.1-2.1 6.2-2.1 7 0 3-3.8 5.5-8.3 5.5-5.5 0-8.5 2.7-6.7 5.9 1.1 2.2 1.8 2.4 6.4 2.1 2.6-.2 2.8.1 2.2 2.2-3.2 11.7-4.9 21.5-5 30.3-.1 8.9.2 10.6 2.4 15 4.5 8.6 14.4 11.5 29 8.4 4-.9 5.1-1.5 5.6-3.5.3-1.3 1.2-2.4 1.9-2.4 3.2 0 2.1-6.1-1.5-8-1.6-.8-3-.9-5.2-.1-1.7.6-6 1.1-9.4 1.1-5.1 0-6.8-.4-8.4-2-2.4-2.4-2.4-2.7-.5-20 1.5-14.7 2.8-21.7 4.3-23.2.5-.5 7-1.1 14.4-1.3l13.6-.5-.5 24.8c-.5 19.3-.9 24.9-1.9 25.5-.8.4-1.4 1.9-1.4 3.2 0 2.8 4.1 6 6.5 5.1.9-.3 3.2.1 5.2.9 4.3 1.8 9.5 1.9 11.1.3.7-.7 1.2-2.3 1.2-3.6 0-1.3.3-2.2.8-2 8.5 4.4 16.8 5.6 25.7 3.8 6.8-1.4 14.1-4.8 16.8-7.8 4.1-4.5 2.5-17.2-2.2-17.2-4.6 0-6.7 3-4 5.7 1.6 1.6-5.7 7.1-11.9 8.9-10.3 3-20-1.3-22.6-10.2-.6-1.9.4-2.3 12.9-5.3 7.5-1.7 15.9-3.5 18.6-3.8 6.6-.8 8-3.3 5.3-9-1.5-3.1-3.3-4.5-9.3-7.6-6.3-3.2-8.3-3.7-14.1-3.7-8.1 0-11.9 2.1-16.8 9.4-6.2 9.3-8 23.6-3.8 30.1 1.8 2.7.8 3.2-2.5 1.5-1.8-1-1.9-2.5-1.9-35.8 0-25.7-.3-35.1-1.2-36-1.6-1.6-4.2-1.4-10.2.6zM531 43.5c1.9 1 2.9 2 2.4 2.5s-5.4 1.6-10.9 2.5c-5.5.8-11 1.8-12.2 2.1-1.3.4-2.3.3-2.3 0 0-1.6 3.7-6 6.5-7.8 3.6-2.3 11.4-2 16.5.7zM168.1 7.5c-1.8.8-6.2 1.5-9.7 1.5-9.4 0-12.8 2.1-11.6 7.2.5 2 5.3 3.7 9.7 3.4 2.6-.1 3.3.5 5 3.9 1.8 3.6 2 6 2 26.7 0 12.4-.4 23-.8 23.5-1.4 1.3-4.5-3.5-12.4-19.7-8.8-17.8-12.2-23.7-17.2-30-2-2.5-4.4-5.7-5.4-7.2-2.6-4.2-6.5-4.7-9.4-1.4-2.8 3.3-2.8 4.5-.3 11.6 2.4 6.9 2.5 17.1.4 37.4-1.3 12.3-1.9 15.4-3.5 16.9-2.4 2.2-2.4 3.9-.1 6 1.4 1.3 4.1 1.6 13.5 1.6 13.8 0 15-.9 9.6-6.5l-3.4-3.5-.5-20.7c-.3-11.4-1-21.6-1.4-22.7-.4-1.1.1-.7 1.3 1 1.1 1.6 4.8 9.8 8.2 18.2 3.3 8.3 7.4 17.2 9 19.8 1.6 2.5 4 6.8 5.4 9.5 1.4 2.7 3.4 5.4 4.4 6 5.5 2.9 12.1-.7 15.7-8.4l2.4-5.3 3.8 3.7c7.8 7.9 24.2 9.2 36.7 3.1 8.6-4.3 10-6.1 9.9-12.9v-5.5l1.7 4c.9 2.2 2.8 5.8 4.1 7.9 1.4 2.2 2.3 4.4 2.1 5.1-.6 1.6 3.3 3.6 5.6 2.8 2.5-.8 5.6-8.2 7.8-18.8.9-4.8 2-8.7 2.4-8.7.3 0 2.5 5.8 4.8 12.9 2.4 7.2 4.8 13.4 5.4 14 2.5 2 6.4 2.3 8 .6.9-.9 3.5-7.6 5.8-14.8 7-22.2 8.8-26.5 11.2-26.9 1.7-.2 2.3-1.1 2.5-4 .4-4.7-1-5.5-11.3-5.9-7.8-.4-7.9-.4-9.5 2.5-1.4 2.7-1.4 2.9 1.1 4.8l2.7 2-3.7 10.4c-2 5.7-3.9 10.4-4.2 10.4-.7 0-3-5.1-6.8-14.8L257 43h2.3c2.9 0 4.7-1.8 4.7-4.7 0-4.3-8-7.2-14.9-5.3-6.5 1.7-9.7 9-4 9 1.9 0 2.1.4 1.6 3.4-.7 4.4-4.9 19.8-5.2 19.4-.2-.2-2.1-4.8-4.2-10.4-3.5-8.8-3.8-10.3-2.6-12.1 3.6-5.3-2.5-7-10.7-2.8l-4.9 2.5-6.3-3c-4.9-2.3-7.7-3-12.6-3-3.5 0-7.3.5-8.5 1.1-3.3 1.7-7.7 6-9.5 9.4-1.7 3-1.7 2.8-2.4-9-.3-6.6-1.3-14-2-16.5-1.3-4.2-1.3-4.7.6-7.2 1.6-2.3 1.8-3.2.8-5.3-1.4-2.9-5.6-3.3-11.1-1zm43.2 40.4c3.8 2.4 3.5 2.5-8.8 4.5-4.9.8-10.2 1.7-11.7 2.1-1.6.4-2.8.3-2.8-.2 0-1.7 3.3-5.5 6.4-7.4 3.9-2.5 12.1-2 16.9 1zM229 64c-.1.3-.5-.3-1.1-1.3-1.3-2.2-6.7-2.3-7.6-.1-.3.9-.1 2.5.5 3.5 2.6 4.2-12.4 11.8-20.7 10.4-6.7-1.1-11.8-5.3-13.5-11.1-.6-1.9.3-2.2 10.6-4.8 6.2-1.5 14.6-3.3 18.6-3.9 5.3-.9 7.7-1.8 8.4-3.2.9-1.5 1.3-1 2.9 4.1 1 3.2 1.9 6.1 1.9 6.4z"/><path d="M380.3 29.1c-.6.6-3.7 1.2-6.9 1.3-4 .2-7.6 1.1-11 2.9-6.4 3.2-15.6 13.2-17.9 19.2-1.6 4.2-1.9 4.4-3.5 3-2.3-2.1-6.5-1.9-8.1.4-.8 1-7 4.4-13.9 7.6-20.4 9.4-23.9 9.9-22.5 3.4 1.2-5.4 6.2-14.5 10.2-18.5 3.2-3.2 12-8.2 12.7-7.2.2.1.8 1.6 1.3 3.3 1.1 3.3 3.9 4.3 7.2 2.5 2.1-1.1 2.8-4.9 1.4-6.4-.5-.4-.8-2.9-.8-5.4v-4.7l-4.2-.3c-8.2-.6-25.6 11.1-36.7 24.6-6.4 7.9-8.5 12.4-6.6 14.7.7.8 1.6 1.2 2.1.9.5-.3.9 1.6.9 4.1 0 3.8.5 5.2 3 7.7 2.9 2.9 3.3 3 9.3 2.3 10.2-1.2 36.9-9.8 43.3-14 2-1.3 2.2-1.1 3.2 2.3.6 2 2.5 5.4 4.2 7.4 4.4 5.3 8.6 5.3 16.4-.3 3.2-2.3 5.8-3.9 5.9-3.8.1.2.7 1.3 1.3 2.4.6 1.1 2.8 2.9 4.9 3.9 3.4 1.7 4.1 1.8 6.4.5 2.1-1.2 2.7-2.4 2.9-5.7.3-4.1 2.2-5.1 2.2-1.2 0 2.7 3.3 4.5 11.3 6.5 7.8 1.9 12.7 1.5 20.3-2C429.2 75.8 436 67 436 58c0-7.7-3.9-10.7-18-13.5-4.7-.9-8.9-2.1-9.4-2.5-.9-.9 5.2-4.3 9.6-5.4 2.1-.5 3-.2 3.8 1.4.6 1.1 1.7 2 2.4 2 .8 0 1.9.7 2.6 1.5 1.6 1.9 6.4 1.9 7.9.1 1.9-2.2.9-6.7-1.9-8.7-1.4-1-5.6-2.3-9.5-2.8-6.4-.9-7.5-.8-12 1.3-6.6 3-11.5 7.9-11.5 11.5 0 4.4 3.6 6.7 15.3 9.9 6 1.6 11.3 3.4 11.9 4 1.8 1.8-2.4 7.4-8.2 10.9-4.2 2.5-6.7 3.3-10.2 3.3-6.3 0-12.7-2.6-13.9-5.6-1-2.9-4.4-3.2-7.2-.7-1.9 1.8-2 1.7-1.3-5.7 1.9-23.4 1.9-27.6.1-29.3-1.9-1.9-4.6-2.2-6.2-.6zM375 44.5l-.5 6.6-9.9 11.4c-5.4 6.3-10.4 11.5-11.1 11.5-1.6 0-2.5-3.2-2.5-9.3 0-5.9 3.5-13.8 8.5-18.9 3.1-3.2 11.6-7.6 15-7.7.6-.1.8 2.4.5 6.4zM312.6 98.6c-71.7 13-128.6 91.8-142.3 197.2-2.4 19.1-2.4 64.2.1 82.7 5.3 39.3 14.8 71.2 30.2 101.5 25.1 49.5 62 82.6 104.4 93.7 13 3.4 33.6 4.2 47 1.9 68.1-11.9 124.4-83.2 140.9-178.6 4.1-23.5 4.6-30.1 4.6-60s-.5-36.5-4.6-60c-16.5-95.2-72.7-166.7-140.3-178.5-10.8-1.8-29.3-1.8-40 .1zm3.2 91.5l-.3 69.2-13-.7c-11.1-.5-39.6-3.3-40.2-3.9-.1-.2-.5-24.1-.9-53.2l-.7-53 4.4-3.6c6.6-5.3 15.7-11.2 22.7-14.8 7.3-3.7 22.7-9 26-9.1h2.4l-.4 69.1zm46.7-65.9c12.2 4 27.3 12.5 38 21.5l3.8 3.2-.6 52.7c-.4 29-.8 52.8-.9 52.9-.7.6-29.5 3.6-40.7 4.2l-12.1.6V120.8l3.3.7c1.7.4 5.9 1.6 9.2 2.7zM227 219.5V248l-2.7-.6c-4.6-1.1-19.7-5.5-20.1-5.8-1.2-1.3 20.5-50.6 22.3-50.6.3 0 .5 12.8.5 28.5zm219.3-12.8c9.1 18.6 14.6 34.1 12.6 35.4-.7.4-5 1.8-9.4 2.9-4.4 1.2-8.8 2.4-9.7 2.6-1.7.5-1.8-1.3-1.8-27.5 0-15.5.2-28.1.5-28.1s3.8 6.6 7.8 14.7zm-224.6 43.2c18.2 4.5 40.1 8.3 62.3 10.8 21.6 2.4 74.1 2.3 96.5-.1 27.9-2.9 58-8.7 79.1-15.1 1.9-.6 2.3.2 4.7 9.2 6 22.9 10.7 56.1 10.7 76.5v3.8l-5.2-2.2c-25.3-10.2-64.4-19.2-99.8-23-20.6-2.2-64-1.6-84 1-29.9 4-59.3 11-84.7 20.1l-11.3 4v-8.5c0-17 4-46.1 9.1-66.9 3.1-12.5 4-14.7 5.4-14.1.8.3 8.5 2.3 17.2 4.5zm94.3 79.6v17.6l-3 1.7c-2.8 1.6-3 2-3 8.2 0 5.4.5 7.3 3 11.5 1.9 3.2 3 6.4 3 8.9 0 3.7-.1 3.8-3 3.2l-3-.6-.1 5.3-.2 5.2-.6-5.7c-.7-6.2-.5-5.9-4.3-7.6L302 376l-.2 5.3-.2 5.2-.3-5.3c-.4-4.6-.8-5.4-3.4-6.7-2.6-1.4-3.2-1.4-5.9 0s-3 2.1-3.2 6.8l-.2 5.2-.3-5.1-.4-5.2-2.9 1.1c-2.8 1.1-3 1.5-3 6.4 0 2.8-.4 5.5-1 5.8-.6.4-1-1.3-1-4.4 0-2.8-.2-5.1-.4-5.1-.3 0-1.6.4-3 1-2.5.9-2.6 1.4-2.6 8 0 6.5.3 7.5 4 13.4l4 6.3V481h34v35.4c0 19.5-.4 35.7-.9 36-1.7 1.1-15.9-3.6-26.6-8.9-6-3-14.8-8.2-19.4-11.7l-8.4-6.3.7-103.5c.5-75.5 1-103.6 1.8-104.1 2.4-1.5 35-5.6 45.6-5.8l7.2-.1v17.5zm56.8-16c7.5.9 17.3 2.1 21.7 2.8l8 1.2.3 104.2.2 104.2-5.2 4.2c-13.7 10.8-29.1 18.5-43.7 21.8l-4.1.9V481l16.3-.2 16.2-.3.5-37 .5-37 3.3-4.7c2.9-4.2 3.2-5.3 3.2-12.2 0-6.4-.3-7.7-1.9-8.6-3.4-1.7-4-1.1-4.4 4.2l-.3 5.3-.2-5.7c-.2-4.5-.6-5.9-2.1-6.8-3.9-2-5-1.3-5.4 3.7l-.3 4.8-.2-5.7c-.2-5.2-.4-5.7-2.9-6.6-1.8-.5-3.8-.5-5.5.1-2.6.8-2.8 1.3-2.8 6.3 0 3-.4 5.4-1 5.4-.5 0-1-2.3-1-5v-5.1l-3 1.6c-2.8 1.4-3 2-3.2 7.3l-.2 5.7-.3-5.3c-.4-5.2-.5-5.4-2.9-4.8l-2.6.7.6-7.6c.3-4.1.9-10.9 1.2-15.1.4-4.9.2-8-.5-8.7-.7-.7-1.1-7.6-1.1-19.4V312h4.5c2.5 0 10.8.7 18.3 1.5zM227 404.7l-.1 78.8-4.4-8c-18.8-33.7-32.5-88.1-32.5-129.1v-8l11.8-4.2c9-3.2 22.5-7.6 25-8.1.1-.1.2 35.3.2 78.6zm221.5-75.9c5 1.6 13 4.4 17.9 6.2l8.9 3.4-.7 12.5c-1.9 35.8-8.9 69.6-20.3 98.1-4.5 11.4-10.4 23.9-14.3 30.2l-2 3.3v-78.3c0-43 .3-78.2.8-78.2.4 0 4.8 1.3 9.7 2.8zM316 402.4c0 2.6-.6 4.8-1.5 5.6-.9.8-1.5 3-1.5 6 0 4.3-1 6-3.5 6-.1 0-.5-2.6-.8-5.8-.4-5.1-.1-6.3 2.7-10.9 1.7-2.9 3.4-5.3 3.9-5.3.4 0 .7 2 .7 4.4zm40 7.6c0 1.1-.4 2-1 2-.5 0-1 1.8-1 4.1 0 3.3-.3 4-1.6 3.5-.9-.3-1.8-.6-2-.6-.2 0-.4-4.6-.4-10.3v-10.2l3 4.7c1.7 2.7 3 5.7 3 6.8z"/><path d="M209 284.6c0 13.9.4 25.5.9 25.8.8.5 13.8-.7 21.9-2 3.1-.5 3.2-.7 3.2-4.9V299h-9v-8h9.1l-.3-4.8-.3-4.7-4.2-.3c-4.2-.3-4.3-.4-4.3-4v-3.7l4.5.3 4.5.4v-4.1c0-4.9.3-4.7-15.2-8.3l-10.8-2.6v25.4zM444 264.1c-6.9 1.6-13.5 3.1-14.7 3.4-2.2.5-2.3 1-2.3 10.5v10h6.9c6.2 0 7-.2 7.6-2.1.4-1.2 1.4-1.9 2.3-1.7 1.4.3 1.7 1.7 1.7 8.8 0 7.8-.2 8.5-2 8.5-1.7 0-2-.8-2.3-4.8l-.3-4.7H427v5.1c0 4.6.4 5.5 3.4 8.4 7.2 6.7 20.3 8.2 26.6 2.9l3-2.6v-12.9c0-12.5-.1-13.1-2.5-15.4-3-3.1-8.6-3.3-13.2-.5l-3.3 2v-2.3c0-2.1.9-2.5 8.3-4.3l8.2-1.9.3-3.9c.2-2.1 0-4.2-.5-4.6-.4-.4-6.4.6-13.3 2.1zM242.6 268c-3.8 1.2-4.6 2.5-4.6 7.7 0 5.8 1.5 8.6 6.1 11.4 8 4.9 8 4.8.7 4.9H238v4.3c0 6.8 4.9 10.1 15 10.1 10.7-.1 19-4.8 19-10.9 0-4.4-2.8-7.6-9.1-10.5l-5.3-2.5 6.5-.5c5.5-.4 6.4-.8 6.7-2.6.4-2.9-5.1-8-10.7-9.9-5.9-2-13.8-2.7-17.5-1.5zm13.4 10.5c0 2.3-.2 2.4-2 1.5-2.1-1.1-2.5-2.2-1.3-3.3 1.5-1.6 3.3-.6 3.3 1.8zm.8 17.3c.2.7-.4 1.5-1.3 1.8-1.9.8-3.5-1.1-3.5-4 0-1.7.2-1.7 2.2-.4 1.2.8 2.4 2 2.6 2.6zM404.5 270.6c-1.6.3-5.3 1.2-8.2 2-4.7 1.3-5.3 1.8-6.4 5.3-.6 2.1-1 7.7-.8 12.5.4 8.3.6 8.9 3.3 11.1 3.2 2.6 6 3.3 16.1 4.2 8.2.7 12.9-1.1 14.5-5.3.6-1.4 1-7.4 1-13.4 0-9.9-.2-11.1-2.3-13.5-1.8-2.2-3.2-2.7-8.2-3-3.3-.2-7.3-.1-9 .1zM410 288v10h-5v-20h5v10zM274.2 275.8c.3 3.5.5 3.7 4.1 4l3.7.3V303h16v-21h4.5c4.5 0 4.5 0 4.5-3.5 0-2.7-.4-3.5-1.7-3.5-2.4 0-24-1.9-28.1-2.4-3.3-.5-3.3-.5-3 3.2zM364.3 274c-2.3.5-5.5 1.6-7.2 2.5l-3.1 1.6v9.9c0 9.7.1 10 2.7 11.7 2.2 1.5 4.9 1.8 14.9 1.8 16.1 0 16.4-.3 16.4-12.9 0-6.6-.4-9.8-1.5-11.3-2.7-3.9-12.1-5.2-22.2-3.3zm8.7 14.5c0 7.8-.2 8.5-2 8.5s-2-.7-2-8.5.2-8.5 2-8.5 2 .7 2 8.5zM327.1 275.4c-3.3 1.2-8.1 5.7-8.1 7.7 0 .5 2.9.9 6.4.9 5.5 0 6.6-.3 7.9-2.3 1.2-1.7 1.8-1.9 2.7-1 1.8 1.7.7 2.8-7 7.3-7.1 4.1-10 7.1-10 10.2 0 1.7 1.3 1.8 16 1.8h16v-2.5c0-2.4-.3-2.5-6.2-2.6-6.2 0-6.3 0-3.8-1.7 12.2-8.3 13.3-14.6 3.1-18.1-4.3-1.4-12.6-1.3-17 .3zM109.4 315.7l-5.9 15.8H87.7c-8.6 0-15.7.3-15.7.7 0 .4 5.2 5.5 11.5 11.5 6.3 5.9 11.5 11.4 11.5 12.1 0 .8-1.6 8.4-3.6 16.8-1.9 8.5-3.4 15.9-3.2 16.5.2.6 6.3-3.3 13.6-8.5 7.4-5.3 13.7-9.6 14.1-9.6.4 0 6.5 4.3 13.6 9.5s13.2 9.5 13.6 9.5c.3 0-1.2-7.7-3.4-17.2l-4-17.1 12.4-11.8 12.4-11.8-15.9-.3-16-.3-6.1-15.2c-3.3-8.3-6.3-15.4-6.6-15.8-.3-.3-3.3 6.6-6.5 15.2zM544.5 313.2c-2.7 7.3-5.5 14.6-6.2 16.1l-1.4 2.8-15.5-.3c-8.5-.2-15.4 0-15.4.4 0 .3 5.2 5.5 11.5 11.4S529 355.1 529 356c0 1-1.6 8.6-3.6 16.9-1.9 8.4-3.4 15.7-3.2 16.2.2.6 6.4-3.3 13.7-8.6 7.4-5.2 13.7-9.5 14.1-9.5.4 0 6.5 4.3 13.6 9.5 12.8 9.5 14.7 10.6 13.9 8.2-.2-.6-2.1-8.4-4.1-17.1l-3.7-15.9 5.9-5.6c3.3-3.1 8.7-8.2 12.2-11.4 3.4-3.2 6.2-6 6.2-6.2 0-.3-7.1-.6-15.7-.7l-15.7-.3-5.9-15c-3.2-8.3-6.2-15.4-6.6-15.8-.4-.4-3 5.2-5.6 12.5zM122.1 435c-8 1.7-12.6 8.3-14.1 20.3-1 8.4.2 20.5 2.9 28.3 2.2 6.1 9.2 16.8 12.4 18.8 1.2.8 3.6 1.7 5.4 2.1 4 .8 11.3-1.1 11.3-3 0-1.2-1.1-6.3-4.5-21.3-.3-1.2-1.2-2.2-2-2.2s-1.5-.6-1.5-1.3c0-.6-.3-2.2-.6-3.5-.5-1.7-.2-2.2 1.4-2.2 1.7 0 2.3 1.1 3.6 7.2 3.4 15.5 3.8 16.8 5.1 16.8.7 0 1.6 1.3 2 3 .4 1.6 1.3 3 2.1 3 2.9 0 12.3-4.9 13.6-7.2.9-1.6 1.3-6.4 1.3-16.3 0-11.7-.4-15.2-2.2-21-2.8-8.7-8.7-17.4-13.4-19.7-4.2-2.1-16.6-3.1-22.8-1.8zM539.4 443.9c-1.8 1.1-3.8 2.9-4.6 4-1.9 2.7-4.8 1.8-4.8-1.4 0-5-8.1-4.3-13.5 1.1-4.8 4.8-7.7 14.3-7.8 25.9-.1 10.3 1.2 14.9 6 22.2 4 6.3 6.8 7.3 13.2 5 3.9-1.4 4.6-1.4 6.7-.1 1.2.9 2.1 2.1 1.8 2.9-.8 2 3.6 4.5 7.8 4.5 2.7 0 4.7-.8 7.1-3 8.4-7.3 13.9-30.8 10.6-45-1.1-4.7-5.8-12.9-9.3-16.1-2.6-2.5-9.2-2.5-13.2 0zM143 504.6c-11.3 4.7-20.6 8.7-20.7 8.8-.7.6 10.1 24.2 11.3 24.9.8.4 1.4 1.3 1.4 2 .1 4.5 1.7 4 19.6-5.2 9.9-5.1 16.6-8.1 14.9-6.8-2.6 2.2-2.8 2.8-1.8 4.4.7 1 1.9 3 2.8 4.4l1.4 2.7-13.4 10.1c-7.4 5.6-13.5 10.5-13.5 10.9 0 1.7 17.5 25.2 18.8 25.2.4 0 4.1-3 8.2-6.6 4.1-3.6 9.9-8.7 12.8-11.2l5.3-4.5 3.9 3.8c3.7 3.7 4 3.8 5.8 2.2 1-.9 2.1-1.7 2.4-1.7.6 0-6.6 25.1-7.8 27.2-.4.7-2.9 3.9-5.6 7l-4.9 5.7 2.6 1.7c1.4.9 2.4 2.3 2.1 3-.3.8 3.1 3.8 8.9 7.9 5.2 3.6 9.7 6.5 9.9 6.5.2 0 2.2-2.8 4.5-6.3 3.7-5.7 5.4-7.2 18.6-15.6 8-5.1 14.5-9.5 14.5-9.7 0-.2-1.4-1.1-3.1-1.9-2.2-1.2-2.8-2-2-2.9 1.3-1.6-14-11.9-16.3-11-2 .8-4.6-1.2-4.7-3.5 0-.9-2.9-3.8-6.5-6.6-3.5-2.7-6.2-5.5-6-6.1.3-.7-.4-2-1.5-3-1-.9-1.9-2.1-1.9-2.6s-3.3-4.8-7.3-9.7c-10.6-12.7-17.1-22-17.3-25-.5-6-11.3-27.2-13.8-27.1-.6.1-10.3 3.9-21.6 8.6zM499.8 509.5c-1.4 1.3-6.7 8.8-11.8 16.5l-9.3 14 2 2.3c1.1 1.2 2.2 2.9 2.5 3.7.6 1.6 37.6 29.5 38.3 28.9.2-.2 3.1-5.1 6.5-10.8 5.7-9.7 6-10.4 4.3-11.7-1-.7-2.2-1.4-2.7-1.4-.4 0-.5-.7-.2-1.6.4-1-.1-2.3-1.1-3.1-1-.8.3-.3 2.9 1.1l4.7 2.6 5-9.2c5.6-10.2 6.1-12.7 3.1-14.6-1.1-.7-2-2-2-3 0-2-6.3-6.1-13.4-8.7-3.9-1.5-5.2-1.6-6.7-.6-2.2 1.3-3.9.7-3.9-1.4 0-2.7-5.5-5.5-10.8-5.5-3.9 0-5.4.5-7.4 2.5zM466.5 555c-11 4.3-22.3 16.2-23.2 24.4-.5 3.9 0 5 6.6 14.7 10 14.8 15.8 21.8 18.9 23 11.8 4.6 39.2-15.2 39.2-28.2 0-1.4-1.4-4.8-3.2-7.5-3.9-5.9-21.5-26.2-23.9-27.5-2.8-1.4-9-1-14.4 1.1zm9.4 30.7c2.9 3.5 5.1 6.8 4.9 7.5-.4 1.2-11.8-12.7-11.8-14.5 0-.7.3-.7.8-.2.5.6 3.2 3.8 6.1 7.2zM419.9 590.9l-8.6 4.6 9.3 19.3c9 18.7 14.2 28.1 15.5 28.2 1.1 0 21.9-9.9 21.9-10.4 0-1-25.8-42.2-27.7-44.3-1.8-1.9-1.9-1.9-10.4 2.6zM391 604.6c-4.1 1.4-7.6 2.6-7.7 2.8-.2.1.6 2.9 1.7 6.1 1.1 3.2 2 6.1 2 6.4-.1.3-2.4-2-5.3-5.2l-5.2-5.7-7.9 1.5c-4.4.8-8.2 1.8-8.5 2.1-.5.4 5.1 36.9 6.6 43.1.3 1.3 1.1 2.3 1.8 2.3.8 0 1.6 1.4 2 3 .5 2.1 1.3 3 2.6 3 1.8 0 14.5-2.5 17.5-3.5.9-.3.8-2-.3-6.5-.8-3.5-1.2-6.4-1-6.7.3-.2 2.6 2.1 5.2 5.2 2.6 3 5.5 5.5 6.3 5.5.9 0 5.8-1.2 10.9-2.6 8.6-2.5 9.3-2.9 8.7-4.8-2.2-7-16.6-41.9-17.8-43.1-.8-.9-1.8-2.4-2.1-3.5-.8-2.4-.1-2.4-9.5.6zM275.5 608.2c-.4 1.3-2.7 8.7-5.2 16.6l-4.5 14.3-4.3-.7-4.4-.6-1.1 4.3c-1.1 4-1 4.5.9 6 1.2 1 2.1 2.4 2.1 3.2 0 2.4 2.1 3.4 10.4 5.1 9.3 1.9 19.6 2.1 21.9.4 1.2-.9 2.9-6.9 5.7-19.8 2.2-10.2 4-19 4-19.7 0-.6-1-1.3-2.2-1.5-1.8-.2-2.2-.9-2-2.8.3-2.5-.1-2.7-9-4.8-11.4-2.7-11.5-2.7-12.3 0zM305.1 625.2c-3.1 19.6-2.9 24.6 1.2 30.8 4.8 7.5 9.1 9.2 24.2 9.8 10.7.4 12.7.2 16.7-1.6 7.4-3.2 8.3-5.5 8.2-20.2 0-17-1-23.7-3.5-24.5-1.2-.4-1.9-1.5-1.9-3 0-3.1-2.1-3.7-12.5-3.3-7.9.3-8 .3-8.3 3-.4 3.5-2.2 3.7-2.2.4 0-1.4-.3-2.7-.8-2.9-.4-.3-4.8-.8-9.8-1.2l-9.1-.7-2.2 13.4z"/></svg>